<?xml version="1.0" standalone="no"?>
<!DOCTYPE svg PUBLIC "-//W3C//DTD SVG 20010904//EN"
 "http://www.w3.org/TR/2001/REC-SVG-20010904/DTD/svg10.dtd">
<svg version="1.0" xmlns="http://www.w3.org/2000/svg"
 width="1926.000000pt" height="1926.000000pt" viewBox="0 0 1926.000000 1926.000000"
 preserveAspectRatio="xMidYMid meet">
<metadata>
Created by potrace 1.14, written by Peter Selinger 2001-2017
</metadata>
<g transform="translate(0.000000,1926.000000) scale(0.100000,-0.100000)"
fill="#000000" stroke="none">
<path d="M9395 15263 c-33 -14 -69 -29 -80 -34 -32 -13 -120 -49 -450 -182
-170 -69 -361 -146 -423 -171 -62 -25 -117 -46 -122 -46 -5 0 -11 9 -15 20 -6
19 -6 19 -58 -1 -29 -11 -61 -24 -72 -29 -11 -5 -83 -35 -160 -66 -77 -31
-223 -90 -325 -131 -102 -41 -268 -109 -370 -150 -102 -41 -198 -81 -214 -89
-16 -8 -34 -14 -40 -14 -6 0 -17 -4 -24 -9 -11 -6 2 -31 54 -107 38 -55 71
-101 74 -104 5 -5 128 -191 160 -244 91 -149 236 -400 290 -501 23 -44 51 -94
62 -112 l19 -32 -38 -10 c-21 -6 -49 -12 -63 -15 -14 -2 -45 -9 -70 -15 -25
-5 -58 -12 -75 -15 -16 -3 -41 -8 -55 -11 -14 -3 -36 -7 -50 -10 -14 -3 -36
-7 -50 -10 -14 -3 -36 -8 -50 -10 -14 -2 -49 -9 -79 -14 -29 -6 -62 -11 -71
-11 -20 0 -15 -17 -105 339 -77 300 -62 234 -130 571 -67 337 -64 322 -73 317
-9 -6 -134 -20 -187 -21 l-40 -1 -32 160 c-18 88 -32 160 -33 161 0 0 -26 -3
-57 -7 -32 -4 -80 -10 -108 -13 -48 -6 -72 -9 -180 -21 -27 -3 -63 -8 -80 -10
-16 -2 -75 -9 -130 -15 -55 -6 -111 -13 -125 -15 -14 -3 -50 -7 -80 -10 -30
-3 -66 -7 -80 -10 -14 -2 -52 -7 -85 -10 -33 -3 -76 -8 -95 -10 -19 -3 -57 -7
-85 -10 -65 -7 -134 -16 -165 -20 -14 -2 -50 -6 -80 -10 -30 -3 -107 -12 -170
-20 -63 -8 -140 -17 -170 -20 -30 -3 -75 -9 -100 -12 -25 -3 -58 -7 -75 -7
-39 -1 -40 1 52 -231 41 -104 79 -201 83 -215 5 -14 25 -70 44 -125 69 -193
317 -938 313 -941 -8 -8 -441 -17 -782 -17 -304 0 -634 7 -855 18 -226 11
-323 16 -380 20 -36 3 -103 7 -150 10 -115 7 -204 14 -270 19 -30 3 -85 8
-122 11 -179 14 -205 16 -238 20 -34 4 -88 10 -200 20 -30 3 -71 7 -90 10 -19
2 -64 7 -100 10 -36 4 -83 8 -105 11 -22 3 -56 7 -75 9 -40 4 -120 14 -166 20
-60 8 -160 18 -194 19 l-34 1 1 -75 c1 -41 4 -262 8 -490 3 -228 8 -505 10
-615 2 -110 4 -291 5 -402 2 -180 4 -203 19 -204 9 -1 27 -2 41 -4 14 -1 66
-6 115 -9 136 -11 125 1 126 -134 1 -64 1 -125 0 -134 -1 -10 4 -18 11 -19 7
0 29 -2 48 -4 19 -2 78 -6 130 -10 52 -3 106 -8 120 -10 14 -2 70 -7 125 -10
55 -3 116 -8 135 -10 20 -2 81 -7 135 -10 55 -3 123 -7 150 -10 28 -2 104 -7
170 -10 66 -4 147 -8 180 -10 33 -2 130 -6 215 -10 85 -3 187 -8 225 -10 413
-24 1605 -24 2120 0 209 10 343 16 392 20 l52 3 126 -251 c69 -139 144 -285
166 -326 22 -41 58 -108 81 -150 22 -42 58 -106 79 -143 22 -36 39 -69 39 -71
0 -3 -24 -3 -52 -1 -104 7 -194 15 -243 19 -27 2 -84 7 -125 10 -93 7 -189 15
-255 20 -27 2 -86 7 -130 10 -44 3 -100 7 -125 10 -25 2 -79 7 -120 10 -41 3
-99 8 -127 10 l-53 4 -1 -32 c-1 -18 -3 -41 -4 -52 -1 -11 -6 -63 -9 -115 -4
-52 -9 -106 -11 -120 -2 -14 -7 -63 -10 -110 -4 -47 -8 -101 -10 -120 -2 -19
-6 -73 -10 -120 -3 -47 -8 -101 -10 -120 -2 -19 -7 -71 -10 -115 -3 -44 -8
-98 -10 -120 -3 -22 -7 -74 -10 -115 -3 -41 -8 -97 -10 -125 -2 -27 -7 -81
-10 -120 -3 -38 -8 -94 -11 -122 -5 -52 -4 -53 23 -54 41 -2 88 -6 183 -14 47
-4 91 -8 98 -8 14 0 12 -96 -4 -229 -6 -47 -6 -48 22 -49 16 -1 38 -3 49 -4
11 -1 65 -6 120 -10 55 -4 111 -9 125 -10 14 -2 61 -6 105 -9 44 -4 103 -9
130 -11 28 -3 77 -7 110 -10 60 -5 123 -11 223 -20 28 -3 76 -7 105 -10 146
-13 173 -16 201 -20 17 -2 85 -9 151 -15 66 -6 134 -13 150 -15 17 -2 77 -9
135 -15 58 -5 123 -12 145 -15 22 -3 59 -7 83 -10 23 -3 63 -7 90 -11 71 -8
124 -15 152 -19 14 -2 48 -6 75 -9 28 -3 81 -10 118 -16 37 -6 89 -13 115 -16
26 -3 58 -7 72 -9 30 -5 263 -43 305 -50 27 -5 107 -22 210 -45 49 -11 45 -16
160 155 49 72 102 150 119 174 17 23 36 50 41 60 6 9 12 18 15 21 3 3 28 39
55 80 28 41 52 77 55 80 3 3 23 32 45 65 22 33 44 65 48 70 5 6 83 118 173
249 185 270 175 232 89 320 -128 131 -302 333 -420 486 -68 88 -275 387 -275
397 0 2 -17 30 -38 61 -80 118 -281 465 -394 682 -132 250 -188 363 -183 369
3 3 11 6 18 7 7 1 57 9 112 18 87 14 331 58 397 72 13 2 39 7 58 10 19 3 43 7
52 10 9 3 27 7 40 9 114 22 188 38 213 45 17 5 44 11 60 14 38 7 290 68 370
90 33 9 67 18 75 20 8 2 74 21 145 41 126 36 159 50 151 64 -2 3 -7 31 -11 61
-3 30 -8 66 -10 80 -2 14 -6 45 -10 70 -3 25 -8 61 -10 80 -3 19 -8 58 -11 85
-3 28 -7 61 -9 75 -4 28 -21 160 -30 235 -4 28 -8 61 -10 75 -2 14 -7 51 -10
83 -4 32 -8 66 -10 75 -4 22 -19 143 -19 160 -1 8 40 29 95 51 l97 38 16 -34
c20 -42 14 -44 286 80 30 13 170 75 310 137 140 62 277 123 305 135 105 48
125 55 126 42 2 -23 6 -82 13 -207 4 -69 9 -145 11 -170 1 -25 6 -101 10 -170
4 -69 8 -145 10 -170 2 -25 6 -101 10 -170 4 -69 8 -126 9 -127 0 -1 33 -4 71
-8 39 -3 79 -8 90 -10 11 -2 38 -4 60 -4 22 -1 45 -5 52 -9 7 -4 14 -55 18
-132 4 -69 10 -128 13 -132 4 -4 36 -9 72 -13 36 -3 83 -8 105 -10 124 -12
155 -15 210 -20 135 -11 192 -16 230 -20 22 -3 81 -7 130 -10 50 -3 110 -7
135 -9 41 -4 119 -9 325 -21 560 -33 1409 -49 1890 -34 l129 4 27 -73 c23 -63
25 -72 10 -72 -9 0 -70 -3 -136 -5 -749 -30 -1695 -18 -2460 30 -251 16 -358
23 -430 30 -27 3 -88 7 -135 10 -88 5 -186 14 -230 20 -14 2 -65 6 -115 10
-49 3 -101 8 -115 10 -19 3 -147 15 -190 17 -33 2 -39 -4 -35 -34 2 -18 6 -88
10 -156 3 -68 8 -142 10 -165 2 -23 7 -98 10 -167 3 -69 8 -147 10 -175 2 -27
7 -104 10 -170 3 -66 8 -142 10 -170 2 -27 7 -99 10 -160 3 -60 8 -141 10
-180 18 -306 18 -301 26 -309 4 -4 165 -15 236 -16 33 0 42 -4 41 -17 -2 -47
14 -259 20 -265 4 -3 66 -9 137 -13 72 -3 146 -8 165 -10 19 -2 103 -6 185
-10 83 -3 173 -8 200 -10 28 -2 133 -7 235 -11 102 -3 219 -8 260 -9 692 -26
2139 -26 2730 0 41 2 143 6 225 10 l151 7 14 -29 c8 -15 30 -54 47 -86 35 -62
38 -71 25 -63 -5 3 -44 8 -88 11 -43 3 -95 8 -114 10 -19 2 -64 7 -100 10 -36
3 -85 8 -110 10 -25 3 -74 7 -110 10 -36 3 -81 7 -100 10 -66 9 -292 28 -349
29 -49 1 -45 9 -56 -107 -4 -39 -8 -83 -10 -97 -2 -14 -6 -59 -10 -100 -3 -41
-8 -82 -10 -90 -2 -8 -7 -44 -10 -80 -15 -173 -31 -328 -40 -390 -2 -14 -6
-56 -10 -95 -3 -38 -12 -126 -20 -195 -8 -69 -17 -156 -21 -195 -3 -38 -8 -73
-11 -77 -2 -5 -1 -8 4 -9 4 0 22 -2 38 -4 96 -13 238 -28 265 -29 12 -1 14
-15 11 -81 -9 -179 -8 -190 14 -191 46 -3 181 -17 198 -20 10 -2 64 -8 120
-14 56 -6 118 -13 137 -15 19 -2 60 -7 90 -10 94 -11 120 -14 298 -35 95 -11
194 -23 220 -25 26 -3 58 -7 72 -9 28 -6 99 -15 166 -21 25 -3 57 -7 72 -9 15
-2 52 -8 82 -11 30 -4 63 -9 74 -11 10 -2 37 -6 60 -8 22 -3 61 -8 86 -11 72
-9 392 -55 425 -61 17 -3 44 -7 62 -9 17 -2 57 -8 90 -14 32 -6 76 -13 98 -17
22 -3 74 -12 115 -20 41 -8 86 -17 100 -19 14 -2 56 -11 95 -19 38 -8 70 -14
71 -13 1 1 64 97 141 212 305 457 673 1016 673 1021 0 3 -39 43 -87 87 -136
128 -216 207 -209 207 4 0 -20 26 -51 58 -78 77 -123 132 -220 270 -78 112
-267 420 -312 510 l-21 42 22 1 c37 2 67 6 188 27 63 12 131 23 150 27 19 3
42 8 50 10 8 2 31 7 50 10 19 3 53 10 75 15 22 5 56 12 75 15 19 3 87 17 150
31 63 14 124 27 135 29 11 3 150 37 308 77 l289 72 -7 55 c-4 30 -9 64 -11 76
-2 11 -7 36 -10 55 -3 19 -7 42 -9 50 -3 8 -9 44 -14 80 -6 36 -13 79 -16 95
-7 39 -16 93 -21 125 -2 14 -7 41 -10 60 -4 19 -8 49 -10 65 -2 17 -6 41 -10
55 -3 14 -8 43 -10 65 -3 22 -9 56 -14 75 -5 19 -12 60 -15 90 -4 30 -8 57
-10 60 -2 3 -6 26 -10 50 -4 25 -15 95 -25 155 -10 61 -21 124 -24 140 -3 17
-12 71 -20 120 -9 50 -18 108 -21 130 -11 71 -14 76 -43 69 -15 -4 -67 -17
-116 -31 -48 -13 -90 -23 -92 -21 -3 4 -12 52 -39 218 -23 143 -22 141 -48
136 -12 -3 -96 -25 -187 -50 -153 -41 -382 -101 -560 -147 -41 -11 -88 -22
-104 -25 -16 -3 -32 -7 -36 -9 -3 -2 -17 -6 -31 -9 -13 -3 -118 -25 -234 -51
-115 -25 -230 -50 -255 -55 -25 -6 -62 -13 -84 -16 -40 -6 -48 -7 -131 -23
-27 -6 -67 -13 -87 -15 l-37 -6 -16 56 c-9 31 -15 58 -13 59 2 2 26 6 53 10
28 3 57 7 65 10 8 2 31 6 50 9 19 3 98 16 175 30 379 68 646 126 1030 222 206
52 229 58 247 64 4 1 42 12 85 25 63 18 78 26 76 41 -9 85 -14 132 -18 149 -3
11 -7 36 -9 55 -4 32 -19 152 -31 240 -3 19 -7 46 -10 60 -2 14 -7 45 -10 70
-3 25 -7 54 -9 65 -2 11 -7 49 -12 85 -4 36 -8 67 -9 70 -1 3 -5 34 -10 70 -5
36 -9 67 -10 70 -1 3 -5 34 -9 70 -5 36 -10 72 -11 80 -2 8 -6 38 -9 65 -4 28
-12 82 -17 120 -6 39 -12 86 -15 105 -2 19 -7 53 -10 75 -3 22 -8 53 -10 68
-9 70 -16 112 -20 116 -2 2 -55 -11 -116 -30 -62 -19 -117 -34 -122 -34 -5 0
-10 11 -12 25 -1 14 -7 63 -14 110 -6 47 -14 103 -17 125 -3 22 -8 56 -12 76
l-6 35 -105 -33 c-58 -19 -112 -36 -120 -38 -8 -2 -85 -24 -170 -50 -85 -26
-184 -55 -219 -66 -60 -18 -518 -133 -571 -143 -14 -3 -126 -25 -250 -50 -124
-25 -243 -46 -264 -48 l-40 -3 -12 75 c-6 41 -14 95 -17 120 -4 25 -9 59 -12
75 -12 69 -16 97 -21 142 -2 27 -7 59 -9 73 -3 14 -8 48 -11 75 -4 28 -8 57
-10 65 -1 8 -3 28 -3 44 l-1 28 -77 -6 c-43 -3 -102 -9 -130 -12 -29 -3 -54
-2 -54 3 -1 4 -3 17 -4 28 -1 11 -7 54 -13 95 -6 41 -14 95 -17 120 -8 58 -15
81 -23 76 -4 -2 -36 -7 -72 -10 -36 -4 -81 -9 -100 -11 -19 -3 -59 -7 -90 -10
-30 -2 -71 -7 -90 -10 -19 -2 -57 -7 -85 -10 -27 -3 -66 -7 -85 -10 -19 -2
-60 -7 -90 -10 -30 -3 -68 -7 -85 -9 -16 -2 -61 -7 -98 -11 -37 -3 -76 -8 -85
-10 -9 -1 -53 -6 -97 -9 -44 -4 -87 -9 -95 -11 -8 -2 -46 -6 -83 -10 -37 -3
-76 -8 -85 -10 -9 -1 -48 -6 -87 -9 -38 -4 -81 -9 -95 -11 -30 -4 -103 -12
-185 -20 -33 -3 -71 -8 -85 -10 -14 -3 -54 -7 -90 -10 -102 -9 -100 -7 -80
-63 9 -26 20 -54 23 -62 3 -8 19 -58 37 -110 17 -52 34 -102 37 -110 4 -8 7
-17 8 -20 0 -3 23 -70 49 -150 66 -199 137 -421 141 -443 4 -17 -19 -17 -463
-12 -257 3 -494 8 -527 10 -33 2 -121 6 -195 10 -200 10 -255 13 -339 19 -42
3 -114 8 -161 11 -47 3 -105 7 -130 10 -25 2 -79 7 -120 10 -41 3 -91 8 -110
10 -19 2 -69 7 -110 10 -41 3 -91 7 -110 10 -32 4 -84 10 -200 21 -25 2 -63 6
-85 9 -22 2 -141 16 -265 30 -124 15 -228 29 -232 33 -6 7 -108 184 -121 213
-4 8 -17 30 -30 50 -12 20 -49 82 -82 138 -33 57 -70 119 -83 139 -12 21 -27
46 -32 57 -8 17 -145 233 -180 285 -31 46 -181 264 -215 313 -41 59 -41 59
-100 43 -17 -5 -38 21 -130 154 -62 91 -117 160 -125 159 -8 0 -42 -12 -75
-26z"/>
<path d="M2236 9987 c-14 -21 -195 -391 -229 -467 -8 -19 -26 -60 -40 -90
-109 -240 -253 -675 -292 -877 -20 -107 -45 -257 -50 -303 -4 -30 -10 -86 -14
-125 -9 -71 -7 -504 2 -540 3 -11 8 -45 12 -75 13 -100 53 -273 90 -385 59
-176 192 -438 279 -546 12 -15 30 -39 41 -55 41 -58 86 -106 340 -360 143
-143 294 -287 335 -321 362 -293 877 -518 1455 -637 66 -14 134 -27 150 -30
71 -12 93 -16 155 -25 36 -6 88 -13 115 -16 68 -8 111 -13 165 -20 25 -3 72
-7 105 -9 33 -3 105 -8 160 -13 199 -16 1202 -9 1495 12 25 1 92 6 150 10 58
3 121 8 140 10 19 2 76 6 125 10 50 3 101 8 115 10 30 4 101 12 190 20 36 4
76 8 90 10 30 5 95 13 153 20 23 3 60 8 82 11 22 3 51 7 65 9 220 31 777 128
786 138 1 1 5 52 8 112 4 61 9 137 11 170 2 33 7 116 10 185 3 69 8 143 10
165 1 22 6 105 10 185 4 80 8 168 10 195 2 28 6 106 10 175 4 69 8 145 10 170
2 25 7 110 10 190 4 80 8 164 9 187 3 43 1 44 -52 29 -9 -3 -35 -8 -57 -11
-22 -3 -77 -14 -123 -24 l-84 -18 7 131 c3 72 8 155 10 184 5 50 4 53 -15 47
-11 -3 -32 -8 -47 -11 -23 -4 -137 -26 -253 -49 -40 -8 -291 -53 -335 -60 -22
-4 -53 -9 -70 -11 -16 -3 -55 -9 -85 -14 -30 -5 -75 -12 -100 -15 -45 -5 -102
-13 -150 -20 -14 -2 -47 -6 -75 -10 -27 -3 -68 -7 -90 -10 -71 -8 -129 -15
-180 -20 -27 -2 -72 -7 -100 -10 -194 -19 -407 -34 -745 -51 -301 -16 -1135
-9 -1238 11 -9 1 -51 6 -92 11 -41 4 -77 8 -80 9 -3 1 -32 5 -65 10 -33 5 -62
9 -65 10 -3 1 -25 5 -50 9 -162 28 -390 99 -510 159 -78 39 -87 46 -109 92
-86 180 -76 525 23 827 51 153 136 340 222 485 44 74 128 208 133 213 6 5 126
181 181 264 29 45 30 48 10 52 -8 2 -33 8 -55 13 -22 5 -51 12 -65 15 -14 2
-74 16 -135 31 -60 15 -118 29 -129 31 -10 2 -21 5 -23 7 -2 3 26 48 62 101
42 62 61 98 53 101 -13 4 -952 222 -998 231 -14 3 -70 16 -125 29 -55 14 -111
26 -125 29 -14 2 -53 11 -88 20 -34 9 -84 21 -110 27 -71 14 -88 18 -202 45
-58 14 -111 27 -117 29 -7 2 -19 -6 -27 -18z"/>
<path d="M11163 9503 c-12 -27 -64 -139 -116 -250 -195 -414 -298 -709 -353
-1013 -2 -14 -6 -36 -9 -50 -3 -14 -7 -45 -10 -70 -3 -25 -10 -76 -14 -115
-10 -71 -8 -539 2 -585 3 -14 8 -47 11 -75 27 -223 113 -490 219 -680 102
-183 199 -308 346 -449 120 -115 172 -167 237 -236 33 -36 87 -89 119 -119 62
-56 211 -171 222 -171 4 0 15 -7 25 -17 10 -9 27 -21 37 -27 11 -6 50 -29 88
-50 130 -76 440 -216 507 -231 6 -1 22 -7 36 -12 27 -11 237 -72 337 -98 55
-14 111 -26 193 -41 14 -3 57 -11 95 -19 39 -8 93 -17 120 -20 28 -3 61 -8 75
-10 113 -21 361 -46 610 -62 242 -15 1082 -8 1415 12 133 8 253 16 305 20 30
3 89 7 130 10 95 7 185 15 230 20 19 3 64 7 100 10 36 3 81 7 100 10 41 6 83
11 165 20 51 5 357 47 435 60 130 20 291 50 299 54 9 6 13 58 26 291 3 52 7
138 10 190 3 52 7 127 10 165 2 39 7 124 10 190 4 66 8 145 10 175 2 30 7 114
10 185 3 72 8 153 10 180 1 28 6 113 9 190 4 77 10 160 13 184 3 24 1 41 -4
38 -5 -3 -28 -8 -51 -12 -24 -3 -93 -17 -154 -30 l-110 -23 7 132 c4 72 8 155
10 184 2 45 0 52 -14 48 -19 -7 -261 -54 -311 -62 -19 -3 -51 -9 -70 -14 -19
-5 -53 -11 -75 -15 -23 -3 -50 -7 -62 -9 -11 -3 -38 -7 -59 -10 -22 -4 -64
-11 -94 -16 -30 -5 -73 -11 -95 -14 -22 -3 -87 -12 -145 -21 -58 -8 -131 -17
-163 -20 -32 -4 -66 -8 -75 -10 -9 -1 -55 -6 -101 -10 -47 -4 -92 -8 -102 -10
-9 -2 -55 -6 -101 -10 -45 -3 -103 -8 -128 -10 -25 -2 -88 -7 -140 -10 -52 -3
-120 -8 -150 -10 -343 -27 -1286 -26 -1483 0 -18 3 -61 7 -97 11 -36 3 -83 9
-105 14 -22 4 -47 8 -55 8 -8 0 -26 3 -40 6 -14 4 -41 9 -60 12 -141 22 -450
126 -472 158 -27 39 -43 137 -43 266 0 202 35 340 141 557 44 89 202 344 246
398 5 5 23 30 42 55 18 25 65 89 104 142 78 105 85 119 62 123 -8 2 -89 17
-180 35 -91 18 -176 34 -190 36 -68 12 -70 3 17 119 82 109 82 109 8 120 -22
3 -94 16 -160 29 -163 33 -285 57 -315 62 -14 2 -50 10 -80 16 -30 6 -62 12
-70 13 -8 1 -55 10 -105 20 -49 10 -97 19 -105 20 -8 1 -26 5 -40 8 -26 6
-175 35 -220 43 -14 2 -45 8 -70 14 -43 9 -177 34 -230 44 -14 2 -86 16 -160
31 -210 42 -192 43 -217 -12z"/>
</g>
</svg>
