<svg width="16" height="16" viewBox="0 0 16 16" fill="none" xmlns="http://www.w3.org/2000/svg">
<path fill-rule="evenodd" clip-rule="evenodd" d="M13.0445 12.9785C12.6416 13.4309 11.9666 13.4538 11.5368 13.0297L3.00347 4.60863C2.5737 4.18451 2.55193 3.47396 2.95484 3.02156C3.35775 2.56917 4.03277 2.54625 4.46255 2.97037L12.9959 11.3914C13.4256 11.8155 13.4474 12.5261 13.0445 12.9785Z" fill="#A0A3BD"/>
<path fill-rule="evenodd" clip-rule="evenodd" d="M12.9783 2.95518C13.4307 3.3581 13.4536 4.03312 13.0295 4.46289L4.60844 12.9962C4.18432 13.426 3.47377 13.4478 3.02138 13.0449C2.56899 12.6419 2.54607 11.9669 2.97018 11.5371L11.3912 3.00382C11.8153 2.57405 12.5259 2.55227 12.9783 2.95518Z" fill="#A0A3BD"/>
</svg>
