<svg width="48" height="48" viewBox="0 0 48 48" fill="none" xmlns="http://www.w3.org/2000/svg">
<path d="M0 24C0 10.7452 10.7452 0 24 0V0C37.2548 0 48 10.7452 48 24V24C48 37.2548 37.2548 48 24 48V48C10.7452 48 0 37.2548 0 24V24Z" fill="#F7F7FC"/>
<path fill-rule="evenodd" clip-rule="evenodd" d="M21.3684 16.4135C21.9704 15.8622 22.9465 15.8622 23.5485 16.4135C24.1505 16.9648 24.1505 17.8587 23.5485 18.41L19.0825 22.5H31.4615C32.3112 22.5 33 23.1716 33 24C33 24.8284 32.3112 25.5 31.4615 25.5H19.0825L23.5485 29.59C24.1505 30.1413 24.1505 31.0352 23.5485 31.5865C22.9465 32.1378 21.9704 32.1378 21.3684 31.5865L16.3545 26.9948C13.9998 25 14.0001 23 16.3544 21" fill="#1EA5FC"/>
</svg>
