<svg width="48" height="48" viewBox="0 0 48 48" fill="none" xmlns="http://www.w3.org/2000/svg">
<path d="M48 24C48 37.2548 37.2548 48 24 48V48C10.7452 48 0 37.2548 0 24V24C0 10.7452 10.7452 0 24 0V0C37.2548 0 48 10.7452 48 24V24Z" fill="#F7F7FC"/>
<path fill-rule="evenodd" clip-rule="evenodd" d="M26.6316 31.5865C26.0296 32.1378 25.0535 32.1378 24.4515 31.5865C23.8495 31.0352 23.8495 30.1413 24.4515 29.59L28.9175 25.5H16.5385C15.6888 25.5 15 24.8284 15 24C15 23.1716 15.6888 22.5 16.5385 22.5H28.9175L24.4515 18.41C23.8495 17.8587 23.8495 16.9648 24.4515 16.4135C25.0535 15.8622 26.0296 15.8622 26.6316 16.4135L31.6455 21.0052C34.0002 23 33.9999 25 31.6456 27" fill="#1EA5FC"/>
</svg>
